<?xml version="1.0" standalone="no"?>
<!DOCTYPE svg PUBLIC "-//W3C//DTD SVG 20010904//EN"
 "http://www.w3.org/TR/2001/REC-SVG-20010904/DTD/svg10.dtd">
<svg version="1.0" xmlns="http://www.w3.org/2000/svg"
 width="700.000000pt" height="700.000000pt" viewBox="0 0 700.000000 700.000000"
 preserveAspectRatio="xMidYMid meet">
<metadata>
Created by potrace 1.14, written by Peter Selinger 2001-2017
</metadata>
<g transform="translate(0.000000,700.000000) scale(0.100000,-0.100000)"
fill="#000000" stroke="none">
<path d="M3368 6995 c-2 -1 -23 -5 -48 -8 -25 -4 -54 -8 -65 -10 -11 -3 -38
-8 -60 -12 -22 -5 -44 -9 -50 -10 -5 -2 -52 -17 -103 -34 -187 -62 -394 -180
-570 -323 -74 -60 -250 -231 -302 -293 -250 -299 -420 -587 -585 -995 -40 -98
-145 -412 -145 -433 0 -5 19 8 43 30 81 75 143 116 304 202 77 41 336 130 423
145 14 2 43 9 65 14 22 6 56 14 75 17 19 3 58 10 85 15 28 5 70 12 95 15 25 3
59 8 75 11 31 5 57 8 180 20 39 3 81 8 95 10 180 24 1005 24 1240 0 19 -2 67
-7 105 -10 39 -4 81 -8 95 -10 14 -3 48 -7 75 -10 28 -3 61 -8 75 -10 14 -3
41 -7 60 -10 63 -10 94 -16 165 -31 39 -8 81 -17 94 -20 52 -10 210 -59 296
-92 180 -69 324 -154 432 -256 l52 -49 -34 114 c-107 355 -270 716 -453 998
-334 513 -776 867 -1229 984 -53 14 -73 18 -158 33 -33 5 -322 13 -327 8z"/>
<path d="M3178 5295 c-1 -1 -61 -6 -133 -9 -71 -4 -150 -9 -175 -11 -25 -2
-72 -7 -105 -10 -218 -20 -496 -72 -675 -126 -486 -146 -747 -401 -754 -739
-2 -52 1 -115 6 -140 13 -67 29 -132 38 -155 42 -109 88 -209 125 -271 25 -42
45 -78 45 -80 0 -3 5 -10 10 -17 6 -7 38 -50 72 -97 34 -47 84 -112 112 -145
62 -74 288 -300 375 -376 l64 -55 -61 1 c-45 1 -67 6 -83 21 -84 74 -122 110
-205 194 -51 52 -127 137 -169 188 l-77 92 -18 -22 c-17 -22 -244 -368 -287
-437 l-21 -34 -99 -3 c-54 -1 -118 -7 -143 -14 -133 -36 -233 -128 -275 -255
-16 -49 -23 -163 -12 -201 4 -10 9 -35 12 -54 3 -19 8 -42 10 -50 2 -8 7 -30
10 -48 3 -18 12 -60 20 -94 l14 -61 -70 -131 c-126 -237 -233 -459 -379 -791
-65 -147 -206 -531 -219 -596 -15 -71 -7 -227 14 -299 63 -211 233 -375 455
-441 l75 -22 2415 -2 c1328 -2 2611 0 2850 4 416 7 438 8 499 30 193 68 351
226 412 412 20 63 24 93 24 204 -1 121 -3 136 -32 215 -17 47 -46 123 -63 170
-32 88 -93 243 -115 295 -147 340 -301 658 -454 937 -45 81 -79 153 -76 160 2
7 7 30 10 52 3 21 7 41 10 45 4 8 17 91 19 131 4 52 -13 134 -38 183 -63 129
-182 206 -340 221 -33 3 -60 7 -61 9 -1 1 -12 20 -25 42 -13 22 -84 132 -159
244 l-134 204 -20 -24 c-101 -126 -180 -213 -302 -332 -134 -131 -147 -140
-211 -142 -30 -1 -54 1 -54 5 0 4 28 31 63 59 195 165 390 380 524 578 301
446 332 817 91 1095 -44 52 -155 141 -217 177 -108 61 -129 71 -266 123 -75
28 -237 74 -326 92 -13 3 -49 10 -79 16 -30 6 -68 13 -85 15 -27 4 -87 13
-125 20 -8 1 -44 6 -80 10 -36 3 -76 8 -90 10 -14 2 -68 7 -120 10 -52 4 -106
9 -120 11 -29 5 -817 14 -822 9z"/>
</g>
</svg>
